<svg width="22" height="20" viewBox="0 0 22 20" fill="none" xmlns="http://www.w3.org/2000/svg">
<path fill-rule="evenodd" clip-rule="evenodd" d="M15.659 -3.05176e-05C18.989 -3.05176e-05 21.5 2.71697 21.5 6.31997V13.188C21.5 15.032 20.848 16.698 19.663 17.88C18.6 18.939 17.221 19.5 15.675 19.5H5.822C4.279 19.5 2.901 18.94 1.837 17.88C0.652 16.698 0 15.032 0 13.188V6.31997C0 2.71697 2.511 -3.05176e-05 5.841 -3.05176e-05H15.659ZM15.659 1.49997H5.841C3.326 1.49997 1.5 3.52697 1.5 6.31997V13.188C1.5 14.631 1.996 15.92 2.896 16.817C3.672 17.592 4.685 18 5.825 18H15.659C15.661 17.998 15.669 18 15.675 18C16.816 18 17.828 17.592 18.604 16.817C19.505 15.92 20 14.631 20 13.188V6.31997C20 3.52697 18.174 1.49997 15.659 1.49997ZM17.235 6.12877C17.496 6.44977 17.447 6.92177 17.126 7.18377L12.682 10.7958C12.12 11.2418 11.448 11.4648 10.777 11.4648C10.108 11.4648 9.441 11.2438 8.883 10.8018L4.398 7.18577C4.075 6.92577 4.025 6.45277 4.284 6.13077C4.545 5.80977 5.017 5.75877 5.339 6.01777L9.82 9.62977C10.383 10.0758 11.176 10.0758 11.743 9.62577L16.179 6.01977C16.501 5.75677 16.973 5.80677 17.235 6.12877Z" fill="url(#paint0_linear_7998_473)"/>
<defs>
<linearGradient id="paint0_linear_7998_473" x1="0" y1="9.74997" x2="21.5" y2="9.74997" gradientUnits="userSpaceOnUse">
<stop stop-color="#02AAB0"/>
<stop offset="1" stop-color="#00CDAC"/>
</linearGradient>
</defs>
</svg>
