<svg xmlns="http://www.w3.org/2000/svg" fill="none" viewBox="0 0 21 21"><path fill="url(#a)" fill-rule="evenodd" d="M12.897.842a.75.75 0 0 1 0 1.5H5.629C3.121 2.342 1.5 4.066 1.5 6.736v8.082c0 2.705 1.582 4.385 4.129 4.385h8.604c2.508 0 4.129-1.72 4.129-4.385V7.78a.75.75 0 0 1 1.5 0v7.04c0 3.52-2.262 5.884-5.629 5.884H5.629C2.262 20.703 0 18.338 0 14.818V6.736C0 3.211 2.262.842 5.629.842h7.268Zm2.115 6.83a.75.75 0 0 1 .134 1.052l-2.93 3.78a.746.746 0 0 1-.5.285.741.741 0 0 1-.556-.154L8.342 10.42l-2.53 3.289a.75.75 0 1 1-1.19-.914l2.993-3.89a.75.75 0 0 1 1.058-.132l2.82 2.215 2.467-3.183a.746.746 0 0 1 1.052-.134ZM17.967 0a2.674 2.674 0 0 1 2.672 2.672 2.675 2.675 0 0 1-2.672 2.673 2.676 2.676 0 0 1-2.672-2.673A2.675 2.675 0 0 1 17.967 0Zm0 1.5a1.173 1.173 0 0 0 0 2.345 1.173 1.173 0 0 0 0-2.345Z" clip-rule="evenodd"/><defs><linearGradient id="a" x1="0" x2="20.639" y1="10.352" y2="10.352" gradientUnits="userSpaceOnUse"><stop stop-color="#02AAB0"/><stop offset="1" stop-color="#00CDAC"/></linearGradient></defs></svg>