<svg width="20" height="20" viewBox="0 0 20 20" fill="none" xmlns="http://www.w3.org/2000/svg">
<path fill-rule="evenodd" clip-rule="evenodd" d="M7.59175 11.957C10.8508 11.957 15.1838 12.324 15.1838 15.499C15.1838 18.8435 10.1349 19.0442 7.96916 19.0562L7.18286 19.0562C4.87369 19.0443 -0.000244141 18.8447 -0.000244141 15.519C-0.000244141 12.1707 5.04865 11.9698 7.21435 11.9578L7.47455 11.957C7.5151 11.957 7.55419 11.957 7.59175 11.957ZM7.59175 13.457C4.81276 13.457 1.49976 13.814 1.49976 15.519C1.49976 16.871 3.54976 17.557 7.59175 17.557C11.6338 17.557 13.6838 16.864 13.6838 15.499C13.6838 14.144 11.6338 13.457 7.59175 13.457ZM16.7065 11.4899C19.4125 11.8949 19.9795 13.1479 19.9795 14.1269C19.9795 14.8559 19.6645 15.8429 18.1615 16.4119C18.0745 16.4449 17.9845 16.4609 17.8955 16.4609C17.5925 16.4609 17.3075 16.2759 17.1945 15.9769C17.0475 15.5899 17.2425 15.1559 17.6295 15.0099C18.4795 14.6879 18.4795 14.2949 18.4795 14.1269C18.4795 13.5599 17.8085 13.1719 16.4855 12.9749C16.0755 12.9129 15.7925 12.5309 15.8535 12.1219C15.9155 11.7119 16.3045 11.4369 16.7065 11.4899ZM7.59175 0C10.4228 0 12.7268 2.304 12.7268 5.135C12.7328 6.499 12.2038 7.787 11.2398 8.757C10.2778 9.728 8.99275 10.265 7.62575 10.27H7.59175C4.75976 10.27 2.45576 7.966 2.45576 5.135C2.45576 2.304 4.75976 0 7.59175 0ZM14.6794 1.1238C16.6444 1.4458 18.0704 3.1268 18.0704 5.1198C18.0664 7.1248 16.5694 8.8468 14.5874 9.1248C14.5524 9.1298 14.5174 9.1318 14.4824 9.1318C14.1144 9.1318 13.7934 8.8608 13.7404 8.4858C13.6834 8.0758 13.9684 7.6958 14.3784 7.6388C15.6264 7.4638 16.5684 6.3808 16.5704 5.1188C16.5704 3.8648 15.6724 2.8068 14.4374 2.6048C14.0284 2.5368 13.7514 2.1518 13.8184 1.7428C13.8854 1.3338 14.2724 1.0588 14.6794 1.1238ZM7.59175 1.5C5.58676 1.5 3.95576 3.131 3.95576 5.135C3.95576 7.139 5.58676 8.77 7.59175 8.77H7.62275C8.58675 8.766 9.49476 8.387 10.1758 7.7C10.8578 7.015 11.2308 6.104 11.2268 5.138C11.2268 3.131 9.59575 1.5 7.59175 1.5Z" fill="url(#paint0_linear_7998_483)"/>
<defs>
<linearGradient id="paint0_linear_7998_483" x1="-0.000244141" y1="9.52812" x2="19.9795" y2="9.52812" gradientUnits="userSpaceOnUse">
<stop stop-color="#02AAB0"/>
<stop offset="1" stop-color="#00CDAC"/>
</linearGradient>
</defs>
</svg>
