<svg xmlns="http://www.w3.org/2000/svg" fill="none" viewBox="0 0 20 21"><path fill="url(#a)" fill-rule="evenodd" d="M10.267 0c.716 0 1.412.295 1.911.806.498.514.773 1.219.752 1.934.002.16.055.347.151.51a1.157 1.157 0 0 0 1.583.415 2.67 2.67 0 0 1 3.64.977l.623 1.079a.85.85 0 0 1 .042.086 2.673 2.673 0 0 1-1.01 3.545 1.142 1.142 0 0 0-.424.42 1.174 1.174 0 0 0-.12.884c.08.3.271.548.54.702a2.67 2.67 0 0 1 1.241 1.617 2.674 2.674 0 0 1-.27 2.02l-.665 1.107a2.665 2.665 0 0 1-3.627.959 1.19 1.19 0 0 0-.558-.155h-.006c-.289 0-.586.123-.802.338a1.144 1.144 0 0 0-.337.82 2.67 2.67 0 0 1-2.664 2.657H9.014a2.666 2.666 0 0 1-2.664-2.663 1.076 1.076 0 0 0-.15-.531 1.158 1.158 0 0 0-.705-.549 1.157 1.157 0 0 0-.872.118 2.705 2.705 0 0 1-2.043.244 2.681 2.681 0 0 1-1.6-1.27l-.625-1.077a2.658 2.658 0 0 1 .97-3.625c.36-.207.582-.593.582-1.007 0-.413-.223-.8-.582-1.007a2.668 2.668 0 0 1-.97-3.633l.677-1.113c.721-1.254 2.351-1.696 3.622-.966.173.103.361.155.552.157.623 0 1.144-.514 1.154-1.146A2.63 2.63 0 0 1 7.132.782 2.64 2.64 0 0 1 9.014 0h1.253Zm0 1.5H9.014A1.153 1.153 0 0 0 7.86 2.66a2.677 2.677 0 0 1-2.663 2.639 2.58 2.58 0 0 1-1.299-.362 1.165 1.165 0 0 0-1.576.436l-.677 1.113c-.31.538-.12 1.249.432 1.57a2.674 2.674 0 0 1 1.33 2.306c0 .947-.51 1.83-1.332 2.306a1.155 1.155 0 0 0-.42 1.575l.63 1.088c.156.28.411.484.706.567.294.082.618.046.888-.104a2.626 2.626 0 0 1 1.323-.354 2.633 2.633 0 0 1 2.293 1.33c.226.382.351.826.355 1.28 0 .65.522 1.171 1.164 1.171h1.253c.64 0 1.161-.517 1.164-1.156a2.628 2.628 0 0 1 .777-1.882c.498-.498 1.194-.797 1.89-.777.456.01.895.133 1.282.354a1.17 1.17 0 0 0 1.59-.421l.664-1.107a1.157 1.157 0 0 0-.426-1.572 2.637 2.637 0 0 1-1.242-1.619 2.67 2.67 0 0 1 .271-2.018c.23-.4.567-.737.971-.97a1.166 1.166 0 0 0 .417-1.577.558.558 0 0 1-.035-.07l-.586-1.015a1.165 1.165 0 0 0-1.586-.43 2.616 2.616 0 0 1-2.006.278 2.63 2.63 0 0 1-1.622-1.227 2.554 2.554 0 0 1-.359-1.286 1.193 1.193 0 0 0-.329-.874 1.168 1.168 0 0 0-.835-.351Zm-.622 5.475a3.39 3.39 0 0 1 3.386 3.387 3.389 3.389 0 0 1-3.386 3.385 3.389 3.389 0 0 1-3.386-3.385 3.39 3.39 0 0 1 3.386-3.387Zm0 1.5a1.887 1.887 0 1 0 1.886 1.887c0-1.04-.846-1.887-1.886-1.887Z" clip-rule="evenodd"/><defs><linearGradient id="a" x1="0" x2="19.285" y1="10.361" y2="10.361" gradientUnits="userSpaceOnUse"><stop stop-color="#02AAB0"/><stop offset="1" stop-color="#00CDAC"/></linearGradient></defs></svg>