<svg width="21" height="20" viewBox="0 0 21 20" fill="none" xmlns="http://www.w3.org/2000/svg">
<path fill-rule="evenodd" clip-rule="evenodd" d="M5.54339 17.3635C6.25739 17.3635 6.83839 17.9381 6.83839 18.6454C6.83839 19.3527 6.25739 19.9283 5.54339 19.9283C4.82939 19.9283 4.24939 19.3527 4.24939 18.6454C4.24939 17.9381 4.82939 17.3635 5.54339 17.3635ZM16.8237 17.3635C17.5387 17.3635 18.1197 17.9381 18.1197 18.6454C18.1197 19.3527 17.5387 19.9283 16.8237 19.9283C16.1097 19.9283 15.5297 19.3527 15.5297 18.6454C15.5297 17.9381 16.1097 17.3635 16.8237 17.3635ZM1.26759 0.579985L3.34759 0.93661C3.68259 0.995057 3.93759 1.27045 3.96659 1.60726L4.20159 4.382L5.07544 4.38237C5.21804 4.38243 5.35912 4.3825 5.49871 4.38256L7.10302 4.38332C7.2309 4.38338 7.35735 4.38344 7.48238 4.38351L9.25378 4.38447C9.36506 4.38453 9.47501 4.3846 9.58364 4.38466L10.825 4.38545C10.9233 4.38551 11.0204 4.38558 11.1163 4.38564L12.2081 4.38644C12.2943 4.38651 12.3793 4.38658 12.4632 4.38664L13.4151 4.38745C13.49 4.38752 13.5638 4.38759 13.6365 4.38766L14.2621 4.38827C14.3285 4.38834 14.3939 4.38841 14.4582 4.38848L15.1828 4.38931C15.2393 4.38938 15.2949 4.38945 15.3495 4.38952L15.9613 4.39037C16.0087 4.39044 16.0552 4.39051 16.1009 4.39058L16.4898 4.39123C16.5305 4.3913 16.5704 4.39137 16.6096 4.39144L17.0427 4.39231C17.0758 4.39238 17.1082 4.39246 17.1399 4.39253L17.4065 4.39319C17.4341 4.39326 17.461 4.39334 17.4873 4.39341L17.773 4.3943C17.7945 4.39438 17.8153 4.39445 17.8356 4.39453L18.0034 4.39521C18.0204 4.39528 18.037 4.39536 18.053 4.39543L18.2227 4.39635C18.2351 4.39643 18.247 4.3965 18.2584 4.39658L18.3509 4.39728C18.3601 4.39735 18.3688 4.39743 18.3772 4.39751L18.4438 4.39821C18.4503 4.39829 18.4564 4.39837 18.4623 4.39845L18.5076 4.39916C18.5118 4.39924 18.5159 4.39932 18.5197 4.3994L18.5483 4.40012C18.5509 4.4002 18.5534 4.40028 18.5557 4.40036L18.5764 4.40133C18.5777 4.40141 18.5789 4.40149 18.58 4.40157C18.5897 4.40247 18.5912 4.40264 18.5926 4.4028C19.1496 4.48304 19.6396 4.77131 19.9736 5.21511C20.3076 5.65792 20.4476 6.20376 20.3676 6.75058L19.4186 13.2471C19.2396 14.4834 18.1556 15.4156 16.8956 15.4156H5.97459C4.65759 15.4156 3.54259 14.3972 3.43559 13.0945L2.51959 2.30268L1.01259 2.04512C0.603593 1.97379 0.330593 1.59042 0.400593 1.18526C0.472593 0.780091 0.867593 0.516585 1.26759 0.579985ZM4.87483 5.86827L4.32759 5.86794L4.93059 12.9727C4.97459 13.5195 5.42559 13.9296 5.97659 13.9296H16.8936C17.4146 13.9296 17.8596 13.5453 17.9336 13.0351L18.8836 6.5376C18.9056 6.38306 18.8666 6.22852 18.7716 6.1037C18.6776 5.97789 18.5396 5.89666 18.3836 5.87487C18.3764 5.87514 18.3591 5.87539 18.3323 5.87562L18.2235 5.87624C18.2008 5.87633 18.1757 5.87641 18.1485 5.8765L17.582 5.87735C17.5342 5.87738 17.4845 5.87741 17.433 5.87744L16.101 5.87738C16.0267 5.87735 15.9509 5.87732 15.8739 5.87729L14.3538 5.87638C14.2627 5.87631 14.1706 5.87624 14.0776 5.87617L13.2175 5.87549C13.1195 5.87541 13.0208 5.87532 12.9214 5.87524L12.0103 5.87445C11.9074 5.87436 11.8041 5.87426 11.7002 5.87417L11.0727 5.8736C10.9674 5.8735 10.8617 5.8734 10.7559 5.87331L9.79819 5.87242C9.69141 5.87232 9.58456 5.87222 9.4777 5.87212L8.83706 5.87153C8.73044 5.87144 8.62395 5.87134 8.51763 5.87124L7.88243 5.87067C7.77709 5.87058 7.67205 5.87048 7.56738 5.87039L6.63687 5.8696C6.53495 5.86951 6.43357 5.86943 6.33281 5.86935L5.15688 5.86846C5.06199 5.8684 4.96795 5.86833 4.87483 5.86827ZM15.2875 8.04364C15.7015 8.04364 16.0375 8.37649 16.0375 8.78661C16.0375 9.19673 15.7015 9.52958 15.2875 9.52958H12.5155C12.1005 9.52958 11.7655 9.19673 11.7655 8.78661C11.7655 8.37649 12.1005 8.04364 12.5155 8.04364H15.2875Z" fill="url(#paint0_linear_7998_485)"/>
<defs>
<linearGradient id="paint0_linear_7998_485" x1="0.389648" y1="10.2494" x2="20.3896" y2="10.2494" gradientUnits="userSpaceOnUse">
<stop stop-color="#02AAB0"/>
<stop offset="1" stop-color="#00CDAC"/>
</linearGradient>
</defs>
</svg>
