<svg width="20" height="20" viewBox="0 0 20 20" fill="none" xmlns="http://www.w3.org/2000/svg">
<path fill-rule="evenodd" clip-rule="evenodd" d="M17 2C17.2652 2 17.5196 2.10536 17.7071 2.29289C17.8946 2.48043 18 2.73478 18 3V17C18 17.2652 17.8946 17.5196 17.7071 17.7071C17.5196 17.8946 17.2652 18 17 18H13C12.4477 18 12 18.4477 12 19C12 19.5523 12.4477 20 13 20H17C17.7957 20 18.5587 19.6839 19.1213 19.1213C19.6839 18.5587 20 17.7957 20 17V3C20 2.20435 19.6839 1.44129 19.1213 0.87868C18.5587 0.31607 17.7956 0 17 0H13C12.4477 0 12 0.447715 12 1C12 1.55228 12.4477 2 13 2H17Z" fill="url(#paint0_linear_132_2)"/>
<path fill-rule="evenodd" clip-rule="evenodd" d="M6.70711 4.29289C6.31658 3.90237 5.68342 3.90237 5.29289 4.29289L0.292893 9.29289C-0.097631 9.68342 -0.097631 10.3166 0.292893 10.7071L5.29289 15.7071C5.68342 16.0976 6.31658 16.0976 6.70711 15.7071C7.09763 15.3166 7.09763 14.6834 6.70711 14.2929L2.41421 10L6.70711 5.70711C7.09763 5.31658 7.09763 4.68342 6.70711 4.29289Z" fill="url(#paint1_linear_132_2)"/>
<path fill-rule="evenodd" clip-rule="evenodd" d="M14 10C14 9.44772 13.5523 9 13 9H1C0.447715 9 0 9.44772 0 10C0 10.5523 0.447715 11 1 11H13C13.5523 11 14 10.5523 14 10Z" fill="url(#paint2_linear_132_2)"/>
<defs>
<linearGradient id="paint0_linear_132_2" x1="20" y1="10" x2="12" y2="10" gradientUnits="userSpaceOnUse">
<stop stop-color="#02AAB0"/>
<stop offset="1" stop-color="#00CDAC"/>
</linearGradient>
<linearGradient id="paint1_linear_132_2" x1="7" y1="10" x2="0" y2="10" gradientUnits="userSpaceOnUse">
<stop stop-color="#02AAB0"/>
<stop offset="1" stop-color="#00CDAC"/>
</linearGradient>
<linearGradient id="paint2_linear_132_2" x1="14" y1="10" x2="0" y2="10" gradientUnits="userSpaceOnUse">
<stop stop-color="#02AAB0"/>
<stop offset="1" stop-color="#00CDAC"/>
</linearGradient>
</defs>
</svg>
