<svg xmlns="http://www.w3.org/2000/svg" fill="none" viewBox="0 0 50 60"><g filter="url(#a)"><path fill="url(#b)" d="M22.096 9a4.525 4.525 0 0 0-3.196 1.323 4.51 4.51 0 0 0-1.324 3.19v2.05h-2.053a4.523 4.523 0 0 0-4.179 2.787 4.504 4.504 0 0 0-.343 1.729v4.511h6.574v4.1h-2.053c-1.199 0-2.349.476-3.197 1.322S11.001 32.006 11 33.203V41h4.524a4.52 4.52 0 0 0 4.173-2.788 4.507 4.507 0 0 0 .343-1.726h.006v-2.979l-.012.002V14.532l.01.002v-1.02a2.059 2.059 0 0 1 2.053-2.056h7.852v2.056a2.055 2.055 0 0 1-2.056 2.05h-6.92v2.46h6.92a4.523 4.523 0 0 0 3.195-1.32 4.509 4.509 0 0 0 1.324-3.191V9H22.096zm-4.52 13.13h-4.108v-2.05a2.059 2.059 0 0 1 2.056-2.058h2.053v4.107zm0 14.359a2.054 2.054 0 0 1-2.053 2.052h-2.056v-5.336a2.05 2.05 0 0 1 2.056-2.05h2.053v5.333zm3.397-11.898h5.186v2.052a2.056 2.056 0 0 1-2.056 2.05h-3.13v2.462h3.131a4.523 4.523 0 0 0 4.176-2.785 4.506 4.506 0 0 0 .344-1.728h.002V22.13h-7.653v2.461z"/></g><defs><linearGradient id="b" x1="21.706" x2="21.706" y1="9" y2="41" gradientUnits="userSpaceOnUse"><stop offset="0" stop-color="#3461FF"/><stop offset="1" stop-color="#8454EB"/></linearGradient><filter id="a" width="49.412" height="60" x="0" y="0" color-interpolation-filters="sRGB" filterUnits="userSpaceOnUse"><feFlood flood-opacity="0" result="BackgroundImageFix"/><feColorMatrix in="SourceAlpha" result="hardAlpha" values="0 0 0 0 0 0 0 0 0 0 0 0 0 0 0 0 0 0 127 0"/><feOffset dx="3" dy="5"/><feGaussianBlur stdDeviation="7"/><feComposite in2="hardAlpha" operator="out"/><feColorMatrix values="0 0 0 0 0.347833 0 0 0 0 0.241667 0 0 0 0 1 0 0 0 0.54 0"/><feBlend in2="BackgroundImageFix" result="effect1_dropShadow_8016_339"/><feBlend in="SourceGraphic" in2="effect1_dropShadow_8016_339" result="shape"/></filter></defs></svg>