<svg width="147" height="355" viewBox="0 0 147 355" fill="none" xmlns="http://www.w3.org/2000/svg">
<g opacity="0.3" filter="url(#filter0_f_147_3)">
<ellipse rx="57.9582" ry="55.2632" transform="matrix(-0.982408 -0.186746 -0.206223 0.978505 9.32942 129.609)" fill="#A22DFF"/>
</g>
<path d="M-12.5244 216.266H25.049V254.386C25.049 275.137 8.22678 291.959 -12.5244 291.959V216.266Z" fill="url(#paint0_linear_147_3)"/>
<ellipse rx="12.5008" ry="11.9195" transform="matrix(0.982408 0.186746 -0.206223 0.978505 69.6175 101.369)" fill="url(#paint1_linear_147_3)"/>
<ellipse rx="4.54574" ry="4.33437" transform="matrix(0.982408 0.186746 -0.206223 0.978505 59.3354 166.684)" fill="#555D75"/>
<ellipse rx="38.0706" ry="36.3003" transform="matrix(-0.982408 -0.186746 0.206223 -0.978505 -9.24667 126.842)" fill="url(#paint2_linear_147_3)"/>
<g opacity="0.5" filter="url(#filter1_f_147_3)">
<ellipse rx="28.6861" ry="27.3522" transform="matrix(-0.982408 -0.186746 -0.206223 0.978505 15.6046 248.43)" fill="#FFA336"/>
</g>
<defs>
<filter id="filter0_f_147_3" x="-127.75" y="-4.54915" width="274.158" height="268.317" filterUnits="userSpaceOnUse" color-interpolation-filters="sRGB">
<feFlood flood-opacity="0" result="BackgroundImageFix"/>
<feBlend mode="normal" in="SourceGraphic" in2="BackgroundImageFix" result="shape"/>
<feGaussianBlur stdDeviation="39.5" result="effect1_foregroundBlur_147_3"/>
</filter>
<filter id="filter1_f_147_3" x="-92.1414" y="142.129" width="215.492" height="212.601" filterUnits="userSpaceOnUse" color-interpolation-filters="sRGB">
<feFlood flood-opacity="0" result="BackgroundImageFix"/>
<feBlend mode="normal" in="SourceGraphic" in2="BackgroundImageFix" result="shape"/>
<feGaussianBlur stdDeviation="39.5" result="effect1_foregroundBlur_147_3"/>
</filter>
<linearGradient id="paint0_linear_147_3" x1="-2.2002" y1="216.266" x2="-31.8761" y2="254.454" gradientUnits="userSpaceOnUse">
<stop stop-color="#2DF2FF"/>
<stop offset="1" stop-color="#DDFF95"/>
</linearGradient>
<linearGradient id="paint1_linear_147_3" x1="6.8698" y1="-1.2501e-07" x2="-0.914034" y2="19.5922" gradientUnits="userSpaceOnUse">
<stop stop-color="#FF2D92"/>
<stop offset="1" stop-color="#FFA25F"/>
</linearGradient>
<linearGradient id="paint2_linear_147_3" x1="20.9217" y1="7.59264e-07" x2="1.88875" y2="51.7461" gradientUnits="userSpaceOnUse">
<stop stop-color="#A22DFF"/>
<stop offset="1" stop-color="#FF95DB"/>
</linearGradient>
</defs>
</svg>
